<svg xmlns="http://www.w3.org/2000/svg" width="24" height="24" viewBox="0 0 24 24">
  <defs>
    <linearGradient id="grad" x1="0%" y1="0%" x2="100%" y2="100%">
      <stop offset="0%" stop-color="#E15DCD"/>
      <stop offset="100%" stop-color="#814DF7"/>
    </linearGradient>
  </defs>
  
  <path fill="none" stroke="url(#grad)" stroke-width="2" stroke-linecap="round" stroke-linejoin="round" d="M10 21L4.5 21C3.39543 21 3 20.5255 3 19.2L3 4.80001C3 3.47452 3.39543 3.00001 4.5 3.00001L10 3M21 18.9104L21 5.09381C21 5.09381 21 3.94236 19.5 3.36674L11.5 1.06397C11.5 1.06397 10 0.488257 10 2.79104L10 21.0928C10 23.5159 11.5 22.9403 11.5 22.9403L19.5 20.6375C21 20.0618 21 18.9104 21 18.9104ZM16 14L16 17M17.5 11C17.5 12.6569 16.8284 14 16 14C15.1716 14 14.5 12.6569 14.5 11C14.5 9.34315 15.1716 8 16 8C16.8284 8 17.5 9.34315 17.5 11Z"/>
</svg>
